# xmcd CD database file
#
# Track frame offsets:
#	150
#	18393
#	31360
#	43938
#	58233
#	70913
#	85763
#	100458
#	119350
#	136500
#	149973
#	162738
#
# Disc length: 2309 seconds
#
# Revision: 1
# Processed by: cddbd v1.5.2PL0 Copyright (c) Steve Scherf et al.
# Submitted via: CDex 1.51
#
DISCID=b409030c
DTITLE=Teddy Nelson - Millions of miles
DYEAR=1989
DGENRE=Country
TTITLE0=Millions of miles
TTITLE1=None of the feelings in gone
TTITLE2=She'll understand
TTITLE3=An eye for an eye
TTITLE4=our just another beer drinking song
TTITLE5=Break my mind
TTITLE6=Stages of love
TTITLE7=You are so beautiful to me
TTITLE8=Thank you good Lord
TTITLE9=Butterfly
TTITLE10=Long time ago
TTITLE11=The story of Jake La'Roue
EXTD=YEAR: 1989
EXTT0=
EXTT1=
EXTT2=
EXTT3=
EXTT4=
EXTT5=
EXTT6=
EXTT7=
EXTT8=
EXTT9=
EXTT10=
EXTT11=
PLAYORDER=
